<?xml version="1.0" standalone="no"?>
<!DOCTYPE svg PUBLIC "-//W3C//DTD SVG 20010904//EN"
 "http://www.w3.org/TR/2001/REC-SVG-20010904/DTD/svg10.dtd">
<svg version="1.0" xmlns="http://www.w3.org/2000/svg"
 width="50.000000pt" height="50.000000pt" viewBox="0 0 50.000000 50.000000"
 preserveAspectRatio="xMidYMid meet">

<g transform="translate(0.000000,50.000000) scale(0.100000,-0.100000)"
fill="#000000" stroke="none">
<path d="M170 405 l0 -75 -75 0 c-43 0 -75 -4 -75 -10 0 -6 32 -10 75 -10 l75
0 0 -60 0 -60 -75 0 c-43 0 -75 -4 -75 -10 0 -6 32 -10 75 -10 l75 0 0 -75 c0
-43 4 -75 10 -75 6 0 10 32 10 75 l0 75 60 0 60 0 0 -75 c0 -43 4 -75 10 -75
6 0 10 32 10 75 l0 75 75 0 c43 0 75 4 75 10 0 6 -32 10 -75 10 l-75 0 0 60 0
60 75 0 c43 0 75 4 75 10 0 6 -32 10 -75 10 l-75 0 0 75 c0 43 -4 75 -10 75
-6 0 -10 -32 -10 -75 l0 -75 -60 0 -60 0 0 75 c0 43 -4 75 -10 75 -6 0 -10
-32 -10 -75z m140 -155 l0 -60 -60 0 -60 0 0 60 0 60 60 0 60 0 0 -60z"/>
<path d="M210 282 c0 -4 5 -13 12 -20 8 -8 8 -15 -2 -27 -17 -20 -5 -32 15
-15 12 10 18 10 30 0 9 -7 18 -10 22 -7 3 4 0 13 -7 22 -10 12 -10 18 0 30 17
20 5 32 -15 15 -12 -10 -19 -10 -27 -2 -14 14 -28 16 -28 4z"/>
<path d="M60 432 c0 -4 5 -13 12 -20 8 -8 8 -15 -2 -27 -17 -20 -5 -32 15 -15
12 10 18 10 30 0 20 -17 32 -5 15 15 -10 12 -10 18 0 30 17 20 5 32 -15 15
-12 -10 -19 -10 -27 -2 -14 14 -28 16 -28 4z"/>
<path d="M370 425 c-26 -32 13 -81 48 -59 22 14 27 41 12 59 -16 19 -44 19
-60 0z m46 -16 c10 -17 -13 -36 -27 -22 -12 12 -4 33 11 33 5 0 12 -5 16 -11z"/>
<path d="M70 275 c-26 -32 13 -81 48 -59 22 14 27 41 12 59 -16 19 -44 19 -60
0z m46 -16 c10 -17 -13 -36 -27 -22 -12 12 -4 33 11 33 5 0 12 -5 16 -11z"/>
<path d="M70 125 c-26 -32 13 -81 48 -59 9 6 18 19 20 28 8 38 -43 61 -68 31z
m46 -16 c10 -17 -13 -36 -27 -22 -12 12 -4 33 11 33 5 0 12 -5 16 -11z"/>
<path d="M360 132 c0 -4 5 -13 12 -20 8 -8 8 -15 -2 -27 -17 -20 -5 -32 15
-15 12 10 18 10 30 0 20 -17 32 -5 15 15 -10 12 -10 18 0 30 17 20 5 32 -15
15 -12 -10 -19 -10 -27 -2 -14 14 -28 16 -28 4z"/>
</g>
</svg>
